<svg width="40" height="40" viewBox="0 0 40 40" fill="none" xmlns="http://www.w3.org/2000/svg">
<g filter="url(#filter0_d)">
<circle cx="20" cy="16" r="16" fill="#EDB021"/>
<circle cx="20" cy="16" r="15.5" stroke="black"/>
</g>
<path d="M24.2929 23.7071C24.6834 24.0976 25.3166 24.0976 25.7071 23.7071L32.0711 17.3431C32.4616 16.9526 32.4616 16.3195 32.0711 15.9289C31.6805 15.5384 31.0474 15.5384 30.6569 15.9289L25 21.5858L19.3431 15.9289C18.9526 15.5384 18.3195 15.5384 17.9289 15.9289C17.5384 16.3195 17.5384 16.9526 17.9289 17.3431L24.2929 23.7071ZM24 8V23H26V8H24Z" fill="black"/>
<path d="M14.7071 7.29289C14.3166 6.90237 13.6834 6.90237 13.2929 7.29289L6.92893 13.6569C6.53841 14.0474 6.53841 14.6805 6.92893 15.0711C7.31946 15.4616 7.95262 15.4616 8.34315 15.0711L14 9.41421L19.6569 15.0711C20.0474 15.4616 20.6805 15.4616 21.0711 15.0711C21.4616 14.6805 21.4616 14.0474 21.0711 13.6569L14.7071 7.29289ZM15 23L15 8L13 8L13 23L15 23Z" fill="black"/>
<defs>
<filter id="filter0_d" x="0" y="0" width="40" height="40" filterUnits="userSpaceOnUse" color-interpolation-filters="sRGB">
<feFlood flood-opacity="0" result="BackgroundImageFix"/>
<feColorMatrix in="SourceAlpha" type="matrix" values="0 0 0 0 0 0 0 0 0 0 0 0 0 0 0 0 0 0 127 0"/>
<feOffset dy="4"/>
<feGaussianBlur stdDeviation="2"/>
<feColorMatrix type="matrix" values="0 0 0 0 0 0 0 0 0 0 0 0 0 0 0 0 0 0 0.25 0"/>
<feBlend mode="normal" in2="BackgroundImageFix" result="effect1_dropShadow"/>
<feBlend mode="normal" in="SourceGraphic" in2="effect1_dropShadow" result="shape"/>
</filter>
</defs>
</svg>
