<svg width="515" height="120" viewBox="0 0 515 120" fill="none" xmlns="http://www.w3.org/2000/svg">
<path d="M0.339844 119V40.3086H1.83398L18.9336 81.3145V119H0.339844ZM0.339844 14.7422V2.78906H15.1152L50.3105 88.2871L73.2207 36.4902H74.8809V78.6582L56.9512 119H43.6699L0.339844 14.7422ZM83.3477 119V2.78906H101.941V119H83.3477ZM115.223 93.9316V51.7637C115.444 46.3405 117.934 41.0833 122.693 35.9922C128.559 30.1263 135.643 27.138 143.943 27.0273V43.6289C139.627 43.6289 136.362 45.5658 134.148 49.4395C133.374 50.7676 132.986 51.985 132.986 53.0918V63.0527H164.529V53.2578C164.529 48.6094 161.984 45.5658 156.893 44.127C155.454 43.6842 154.015 43.4629 152.576 43.4629V27.0273C160.434 27.0273 167.407 29.7389 173.494 35.1621C178.585 40.0319 181.186 45.5104 181.297 51.5977V80.1523H132.986V93.9316C132.986 96.8092 134.591 99.1888 137.801 101.07C139.793 102.177 141.951 102.73 144.275 102.73V119C133.982 119 125.848 114.85 119.871 106.549C116.772 102.011 115.223 97.8053 115.223 93.9316ZM152.576 119V102.564C158.995 102.564 163.423 99.8529 165.857 94.4297C166.189 93.6549 166.466 92.9355 166.688 92.2715L181.463 97.584C179.471 105.11 174.988 110.921 168.016 115.016C163.257 117.672 158.11 119 152.576 119ZM190.428 44.625V27.5254H201.717V0.962891H219.314V27.5254H230.271V44.791H219.314L219.48 90.7773C219.702 97.418 223.022 100.794 229.441 100.904H232.928L236.912 119H229.109C215.053 119 206.476 113.632 203.377 102.896C202.27 99.0228 201.717 94.4297 201.717 89.1172V44.625H190.428ZM242.889 97.584C242.889 103.782 245.877 109.039 251.854 113.355C257.055 117.118 263.253 119 270.447 119V102.564C262.257 102.454 258.107 99.5762 257.996 93.9316V90.4453C258.107 88.2318 258.771 86.6823 259.988 85.7969C260.874 85.1328 266.076 83.528 275.594 80.9824C282.234 79.2116 286.883 77.6068 289.539 76.168V92.6035C289.539 97.916 287.049 101.126 282.068 102.232C281.072 102.454 280.021 102.564 278.914 102.564V119C286.219 118.889 292.085 117.008 296.512 113.355C300.385 117.118 305.255 119 311.121 119V102.398C308.243 102.177 306.749 100.406 306.639 97.0859V52.4277C306.639 45.7871 303.982 39.8659 298.67 34.6641C293.357 29.4622 286.717 26.8613 278.748 26.8613V43.1309C283.729 43.1309 287.049 45.1784 288.709 49.2734C289.262 50.6016 289.539 51.985 289.539 53.4238V56.9102C289.539 59.7878 283.452 63.1081 271.277 66.8711C259.767 70.4128 253.237 72.6263 251.688 73.5117C245.932 76.9427 242.999 82.2552 242.889 89.4492V97.584ZM244.217 49.9375L259.49 55.748C259.49 49.4395 261.925 45.4551 266.795 43.7949C268.012 43.3522 269.23 43.1309 270.447 43.1309V26.8613C262.811 26.8613 256.225 29.6283 250.691 35.1621C246.375 39.5892 244.217 44.5143 244.217 49.9375ZM323.074 119V0.962891H342V119H323.074Z" fill="#969696" fill-opacity="0.07"/>
<path d="M355.447 87.125C355.447 99.5208 360.926 108.818 371.883 115.016C377.527 118.225 382.951 119.83 388.152 119.83V101.402C385.385 101.402 382.397 100.185 379.188 97.75C375.757 94.8724 373.986 91.3307 373.875 87.125V34.6641C373.875 30.1263 375.757 26.3633 379.52 23.375C382.065 21.4935 384.943 20.4974 388.152 20.3867V1.95898C376.089 1.95898 366.847 7.16081 360.428 17.5645C357.55 22.4342 355.89 27.2487 355.447 32.0078V87.125ZM396.619 119.83C403.702 119.719 410.73 116.288 417.703 109.537C424.233 102.896 427.553 96.3112 427.664 89.7812V60.3965H396.619V77.4961H408.904V87.457C408.904 92.3268 406.359 96.3665 401.268 99.5762C399.386 100.794 397.837 101.402 396.619 101.402V119.83ZM396.619 20.3867C400.714 20.4974 404.09 22.4342 406.746 26.1973C408.296 28.6322 409.181 31.4544 409.402 34.6641V39.9766L427.664 33.3359C427.664 24.8138 424.122 17.2324 417.039 10.5918C410.73 4.83659 403.924 1.95898 396.619 1.95898V20.3867ZM439.949 86.627V32.0078C439.949 26.1419 442.439 20.1654 447.42 14.0781C454.061 6.10938 462.472 2.06966 472.654 1.95898V20.3867C466.899 20.4974 462.583 23.5964 459.705 29.6836C458.82 31.6758 458.377 33.3359 458.377 34.6641V86.627C458.377 92.6035 461.476 97.0306 467.674 99.9082C469.555 100.794 471.16 101.236 472.488 101.236V119.83C466.18 119.83 459.871 117.561 453.562 113.023C444.598 106.383 440.06 97.584 439.949 86.627ZM481.619 119.83V101.236C484.497 101.236 487.485 99.9082 490.584 97.252C493.904 94.2637 495.62 90.722 495.73 86.627V34.6641C495.73 31.3438 494.292 28.1341 491.414 25.0352C488.647 22.0469 485.382 20.4974 481.619 20.3867V1.95898C492.798 1.95898 501.762 6.77344 508.514 16.4023C512.387 21.9362 514.324 27.138 514.324 32.0078V86.627C514.324 98.9121 508.846 108.32 497.889 114.85C492.133 118.17 486.71 119.83 481.619 119.83Z" fill="#EDB021" fill-opacity="0.07"/>
</svg>
