<svg width="16" height="18" viewBox="0 0 16 18" fill="none" xmlns="http://www.w3.org/2000/svg">
<path d="M8.95312 14.7773H5.02734V18H2.78906V14.7773H0.363281V12.9258H2.78906V11.3203H0.363281V9.48047H2.78906V0.9375H9.08203C10.9102 0.9375 12.3594 1.40234 13.4297 2.33203C14.5 3.26172 15.0352 4.51953 15.0352 6.10547C15.0352 7.76953 14.5195 9.05469 13.4883 9.96094C12.4648 10.8594 11.0078 11.3125 9.11719 11.3203H5.02734V12.9258H8.95312V14.7773ZM5.02734 9.48047H9.08203C10.293 9.48047 11.2148 9.19531 11.8477 8.625C12.4805 8.05469 12.7969 7.22266 12.7969 6.12891C12.7969 5.13672 12.4688 4.33594 11.8125 3.72656C11.1562 3.10937 10.2695 2.79688 9.15234 2.78906H5.02734V9.48047Z" fill="black"/>
</svg>
